<mxfile host="app.diagrams.net" modified="2024-09-13T06:20:25.565Z" agent="Mozilla/5.0 (Windows NT 10.0; Win64; x64) AppleWebKit/537.36 (KHTML, like Gecko) Chrome/128.0.0.0 Safari/537.36" version="24.0.7" etag="PdDZkQOAE9U6PtTmvjz3" type="github">
  <diagram name="Page-1" id="gSPA7Lim4ekj_QSYXIFb">
    <mxGraphModel>
      <root>
        <mxCell id="0" />
        <mxCell id="1" parent="0" />
      </root>
    </mxGraphModel>
  </diagram>
</mxfile>
